PathFileType	4	(X/Y/Z)	OpenSim_Sub10_CSBaseline_Accel.trc
DataRate	CameraRate	NumFrames	NumMarkers	Units	OrigDataRate	OrigDataStartFrame	OrigNumFrames
100	100	31	8	m	100	1	9111
Frame#	Time	torso_imu_offset_imu	pelvis_imu_offset_imu	tibia_r_imu_offset_imu	femur_r_imu_offset_imu	tibia_l_imu_offset_imu	femur_l_imu_offset_imu	toes_r_imu_offset_imu	toes_l_imu_offset_imu
				X1	Y1	Z1	X2	Y2	Z2	X3	Y3	Z3	X4	Y4	Z4	X5	Y5	Z5	X6	Y6	Z6	X7	Y7	Z7	X8		Y8	Z8	

1	0	9.03025213	-0.22499633	6.96053699	9.43342812	0.66295861	3.60627875	9.78005486	1.38646016	1.53357513	9.74200628	0.01264000	0.95665537	9.53539581	-2.00550947	1.63284207	9.66624796	1.60834540	-0.47319363	4.84207829	-0.31115210	8.77043806	5.25143358	0.67953218	11.02750642
2	0.01000000	8.95073204	-0.24530294	6.99601430	9.43165253	0.66231642	3.60155040	9.81351181	1.38465366	1.48433372	9.77472897	0.04957686	0.98262561	9.50236536	-1.97475980	1.62799891	9.66916986	1.66590563	-0.49384517	4.86860064	-0.34487325	8.72755370	5.26662245	0.66231774	11.02206060
3	0.02000000	8.98141615	-0.29899623	7.00786163	9.39200777	0.64727578	3.59920270	9.81615454	1.35597089	1.49334529	9.75239245	0.15251608	0.97513320	9.53401709	-1.91234332	1.60076623	9.67712263	1.73404660	-0.48707014	4.88108364	-0.35092834	8.71503453	5.25145082	0.65560113	10.99520368
4	0.03000000	8.99028473	-0.28927539	7.08131202	9.34306316	0.68391495	3.60964920	9.78155039	1.35360607	1.48495271	9.74911559	0.13175596	0.95442422	9.51000499	-1.85378410	1.56192337	9.67076809	1.75532623	-0.51748781	4.83888666	-0.32902392	8.75731334	5.26864136	0.66598649	11.02820994
5	0.04000000	8.91521269	-0.34316048	6.99141019	9.33180727	0.71192182	3.62203637	9.76436477	1.36215924	1.43452459	9.75548806	0.11669844	0.96110344	9.53093901	-1.81214815	1.59726159	9.63808030	1.80156524	-0.53877274	4.88174792	-0.35586606	8.71086341	5.28023904	0.68301166	11.03041763
6	0.05000000	8.92041522	-0.39250997	6.94110625	9.32568111	0.71346406	3.61723469	9.75850479	1.40352170	1.45297834	9.74274561	0.12301475	0.92296767	9.60626001	-1.83871072	1.62684921	9.61158510	1.85706672	-0.49519559	4.82974198	-0.36603087	8.73351911	5.24586830	0.68853795	11.00483028
7	0.06000000	8.90921959	-0.36238722	6.84683992	9.28564858	0.72507421	3.59531178	9.79586938	1.41184401	1.47634950	9.77303332	0.11114178	0.86431831	9.54363002	-1.89652770	1.63246249	9.61314712	1.91231253	-0.52196080	4.81501901	-0.35517150	8.75573796	5.23084617	0.67158339	10.99876919
8	0.07000000	8.84212233	-0.37218946	6.83559170	9.35481863	0.76562765	3.59712173	9.83723607	1.36189884	1.53659017	9.76886906	0.13879253	0.88079831	9.54935645	-1.98172358	1.57928785	9.63235014	1.92649776	-0.52173133	4.86773831	-0.34799008	8.75378621	5.23394908	0.67606289	11.00302190
9	0.08000000	8.92073547	-0.35940088	6.88606480	9.30292181	0.74974049	3.57720908	9.78869478	1.30703877	1.56461124	9.76844800	0.06391156	0.96408301	9.51789622	-2.05093611	1.54690749	9.69021229	1.89856771	-0.48841931	4.86151334	-0.30199684	8.72889058	5.26465941	0.69879846	11.03647632
10	0.09000000	8.96056510	-0.49698873	6.88513612	9.36444129	0.79529610	3.59136218	9.72122963	1.23139834	1.54506905	9.80310531	0.09080996	1.02057485	9.47475359	-2.07468644	1.58016088	9.67272778	1.87294633	-0.54496909	4.86457912	-0.35227097	8.76226736	5.26565853	0.67374312	10.99928011
11	0.10000000	8.95946679	-0.58397743	6.77890615	9.40105099	0.76210932	3.52080107	9.74985354	1.16418669	1.51148715	9.82722067	0.12099907	0.98883616	9.43917893	-2.02477901	1.63610544	9.68572297	1.83209183	-0.52299661	4.88026984	-0.30578997	8.77671320	5.27060391	0.68409481	10.97673921
12	0.11000000	8.98656612	-0.65874866	6.84760041	9.44209174	0.76230727	3.45244726	9.84344910	1.23466551	1.49448765	9.74793675	0.14726447	0.98917794	9.45507973	-1.91480077	1.56288554	9.62600600	1.77198305	-0.51465533	4.84787041	-0.34467060	8.74320415	5.28776799	0.67171701	10.95210386
13	0.12000000	9.02800931	-0.64821547	6.75357243	9.46748966	0.78206033	3.37449794	9.87752439	1.37094706	1.41597004	9.79231393	0.10522651	0.88185263	9.49570713	-1.96268773	1.57134007	9.50669710	1.76602944	-0.45226011	4.84969368	-0.35377050	8.80182943	5.26973918	0.65439652	10.97138319
14	0.13000000	8.97471372	-0.63210490	6.69231942	9.45814798	0.81800593	3.42179178	9.85434749	1.43449998	1.42543347	9.81383354	0.08483779	0.92709790	9.53972611	-1.93181515	1.60618898	9.46620219	1.73334184	-0.40832759	4.86237305	-0.33767231	8.76677451	5.28423729	0.70171497	10.98706408
15	0.14000000	8.95437628	-0.57351421	6.64130314	9.38295195	0.89903317	3.52084849	9.78366744	1.44991929	1.41170076	9.81601684	0.09602940	0.94139079	9.60798838	-1.89969447	1.59517896	9.52003849	1.73482386	-0.45908043	4.87101527	-0.35458598	8.71522529	5.26348688	0.68762503	10.98004567
16	0.15000000	8.95488785	-0.45921640	6.67231964	9.33487506	0.85427290	3.62653656	9.78697608	1.44668028	1.41004301	9.77663865	0.05834801	0.94435124	9.65313340	-1.92392707	1.66919866	9.60131526	1.74478400	-0.49550640	4.83919839	-0.33400323	8.72515754	5.24538722	0.73466087	11.00050024
17	0.16000000	8.94570106	-0.42244371	6.76312643	9.28818822	0.81377762	3.68660187	9.75946783	1.40040760	1.40757379	9.75982808	0.08280177	0.87131993	9.55331111	-1.94664414	1.69818303	9.69877568	1.75248932	-0.52397126	4.86693758	-0.38060123	8.74339068	5.26060791	0.69961357	11.03843141
18	0.17000000	8.86669954	-0.36967340	6.80996491	9.25143804	0.74047134	3.65246598	9.74598623	1.30688333	1.34553099	9.64298987	0.08029900	0.85664365	9.51546444	-1.97296109	1.64051182	9.76896278	1.78344767	-0.58830447	4.88235787	-0.37233340	8.73157356	5.27739308	0.69213629	11.01157151
19	0.18000000	8.81897406	-0.33154880	6.79201895	9.22620117	0.67386425	3.67626929	9.73550589	1.19457608	1.34996884	9.62837663	0.04311071	0.85382986	9.48515610	-1.94136012	1.70532068	9.76892036	1.81473584	-0.58106080	4.85367969	-0.38602806	8.71065360	5.25346714	0.66785021	11.02991614
20	0.19000000	8.79422962	-0.31105750	6.84214896	9.20518721	0.62942231	3.68703866	9.72559213	1.09231729	1.38296672	9.61204047	0.01132229	0.85606543	9.50349000	-1.84174775	1.72598490	9.73930440	1.82825397	-0.56911922	4.88487193	-0.37222260	8.73659460	5.22356839	0.66880733	11.02510405
21	0.20000000	8.82264728	-0.29453935	6.89001137	9.20560878	0.58082869	3.65318330	9.74690415	1.01948238	1.32577328	9.66924289	-0.00180138	0.90159151	9.52484851	-1.91703891	1.56971058	9.65955153	1.80557514	-0.41988283	4.85997368	-0.38099372	8.74417679	5.26002241	0.67027642	11.03107453
22	0.21000000	8.89092641	-0.33244855	6.93019830	9.20469031	0.56236711	3.65479986	9.77717836	1.04555910	1.39755830	9.70624798	-0.07420380	0.89262621	9.51823710	-1.98561124	1.57112024	9.58054944	1.80972317	-0.36069357	4.86162744	-0.37595453	8.73954171	5.27391264	0.68828480	11.03271486
23	0.22000000	8.88121274	-0.35209172	6.88909034	9.23061849	0.59201624	3.62872980	9.77272878	1.05000449	1.41057183	9.72211700	-0.10882786	0.84874547	9.49552912	-1.95962387	1.62656724	9.61275963	1.79759871	-0.28765828	4.86001423	-0.34360344	8.70190995	5.27474590	0.70424459	10.99009342
24	0.23000000	8.83259502	-0.31839283	6.89991257	9.27627444	0.66070970	3.56268838	9.75487630	1.06784347	1.43125533	9.71334322	-0.07350796	0.79057094	9.59553858	-1.96633087	1.66945130	9.62141167	1.79890371	-0.32939169	4.84576324	-0.34244092	8.74383887	5.25612098	0.70920769	11.01918565
25	0.24000000	8.83751997	-0.29308089	6.85542238	9.30069700	0.70931537	3.57923276	9.75685538	1.03994953	1.47743444	9.63394925	-0.03615908	0.69919479	9.57745511	-2.09615013	1.68969172	9.69007599	1.79167068	-0.36214480	4.83748097	-0.33674690	8.72238746	5.27485318	0.69736476	11.01413377
26	0.25000000	8.86182371	-0.30573981	6.83403814	9.40019757	0.74920401	3.52130937	9.72613646	0.97719723	1.45813612	9.61550876	-0.02539563	0.71202442	9.56552704	-2.11052971	1.76568461	9.73297054	1.77318096	-0.48396880	4.85983500	-0.41527289	8.71700428	5.27070168	0.72526352	11.02515729
27	0.26000000	8.88956322	-0.28638317	6.76417342	9.45211851	0.76159385	3.44892700	9.78552055	0.93311581	1.43337203	9.67781896	-0.05457119	0.82238670	9.61040678	-2.08745480	1.71451245	9.75672595	1.69879705	-0.53576911	4.84356645	-0.35465600	8.72784544	5.25273229	0.66587677	11.03336328
28	0.27000000	8.93935838	-0.30315612	6.69270282	9.42536127	0.71503627	3.49934052	9.73500385	0.83241527	1.35468358	9.67407268	-0.05636226	0.81320919	9.60343775	-2.09649502	1.68710119	9.79996310	1.62393819	-0.48841899	4.83338616	-0.35121904	8.71279983	5.25848650	0.66324636	11.04804648
29	0.28000000	8.96309236	-0.34068206	6.68767911	9.44322460	0.63867377	3.44773803	9.75858825	0.85446438	1.37492612	9.66868948	-0.10388312	0.83960562	9.53855741	-2.12657344	1.63226489	9.80298251	1.62387226	-0.52014268	4.83056643	-0.39672580	8.74477016	5.31331498	0.67136441	10.98180558
30	0.29000000	9.01790405	-0.39511135	6.75405083	9.43191271	0.57259986	3.46057193	9.75357208	1.11702661	1.28349154	9.65157046	-0.14145224	0.83736051	9.50940807	-2.11324276	1.65086161	9.76434642	1.58303394	-0.44712124	4.81988421	-0.33881060	8.75212072	5.27253375	0.70170042	11.01146499
31	0.30000000	9.04586412	-0.38333077	6.84830562	9.38724786	0.56326178	3.52792736	9.78702921	1.30157608	1.28327768	9.67894006	-0.20740401	0.85767445	9.46789953	-2.13702229	1.59183481	9.69590242	1.54713010	-0.40398766	4.85219199	-0.31365035	8.72069283	5.28599838	0.74487474	10.97811737
